<svg width="16" height="16" viewBox="0 0 16 16" fill="none" xmlns="http://www.w3.org/2000/svg">
<path d="M4.05527 2.72444C3.96383 2.69103 3.86162 2.72832 3.81317 2.81276L3.31494 3.68108L0.694483 8.14815C0.676482 8.17884 0.666992 8.21377 0.666992 8.24935V8.34781C0.666992 9.93154 1.98979 11.22 3.61571 11.22C5.24163 11.22 6.56443 9.93154 6.56443 8.34781V8.24933C6.56443 8.21376 6.55494 8.17884 6.53695 8.14816L4.36306 4.44133C4.2682 4.27958 4.42807 4.08796 4.6042 4.15229L6.53806 4.85867C6.55602 4.86523 6.56443 4.88207 6.56443 4.90119C6.56443 5.59996 6.99633 6.19744 7.61149 6.4669C7.6895 6.50107 7.74391 6.57589 7.74391 6.66106V13.3178C7.74391 13.4282 7.65437 13.5178 7.54391 13.5178H5.58494C5.47448 13.5178 5.38494 13.6073 5.38494 13.7178V14.4666C5.38494 14.5771 5.47448 14.6666 5.58494 14.6666H8.7234C8.83386 14.6666 8.9234 14.5771 8.9234 14.4666V6.66085C8.9234 6.57579 8.97768 6.50104 9.05552 6.46675C9.25091 6.38067 9.42856 6.26061 9.57975 6.11248C9.63959 6.05384 9.72737 6.03072 9.80572 6.0604L12.2345 6.98061C12.3503 7.02448 12.3988 7.16199 12.3361 7.26882L10.1304 11.0295C10.1124 11.0602 10.1029 11.0951 10.1029 11.1307V11.2292C10.1029 12.8123 11.4257 14.0922 13.0516 14.0922C14.6775 14.0922 16.0003 12.8123 16.0003 11.2292V11.1307C16.0003 11.0951 15.9908 11.0602 15.9728 11.0295L13.0874 6.11105C13.0642 6.07159 13.0283 6.04126 12.9854 6.02512L10.1329 4.94944C10.1127 4.94184 10.1029 4.92275 10.1029 4.90119C10.1029 3.95107 9.30909 3.17788 8.33366 3.17788C8.07668 3.17884 7.82304 3.23468 7.59062 3.34147C7.4008 3.42869 7.22891 3.54816 7.08283 3.69391C7.02366 3.75295 6.93637 3.77694 6.85785 3.74826L4.05527 2.72444ZM8.33366 4.32675C8.48551 4.33337 8.62888 4.39678 8.73393 4.50378C8.83898 4.61079 8.89761 4.75313 8.89761 4.90119C8.89761 5.04924 8.83898 5.19159 8.73393 5.29859C8.62888 5.4056 8.48551 5.46901 8.33366 5.47563C8.18181 5.46901 8.03844 5.4056 7.93338 5.29859C7.82833 5.19159 7.76971 5.04924 7.76971 4.90119C7.76971 4.75313 7.82833 4.61079 7.93338 4.50378C8.03844 4.39678 8.18181 4.33337 8.33366 4.32675ZM3.44321 5.7788C3.5205 5.64708 3.71092 5.64708 3.78821 5.7788L4.78181 7.47216C4.86005 7.60549 4.7639 7.77338 4.60932 7.77338H2.6221C2.46752 7.77338 2.37137 7.60549 2.44961 7.47216L3.44321 5.7788ZM12.8791 8.65967C12.9564 8.52794 13.1468 8.52794 13.2241 8.65967L14.2124 10.3444C14.2907 10.4777 14.1945 10.6456 14.0399 10.6456H12.0633C11.9087 10.6456 11.8126 10.4777 11.8908 10.3444L12.8791 8.65967ZM2.07635 9.18157C2.00767 9.06077 2.10333 8.92225 2.24229 8.92225H4.9904C5.129 8.92225 5.22468 9.06014 5.1565 9.18081C5.02896 9.40654 4.85031 9.60257 4.63268 9.75324C4.33552 9.95895 3.98027 10.07 3.61571 10.0711C2.95147 10.0711 2.37727 9.71089 2.07635 9.18157ZM11.5049 12.0522C11.4378 11.9315 11.5335 11.7944 11.6716 11.7944H14.4316C14.5697 11.7944 14.6654 11.9315 14.5983 12.0522C14.4712 12.2807 14.2919 12.4793 14.0728 12.6319C13.7748 12.8394 13.4179 12.9514 13.0516 12.9525C12.6853 12.9514 12.3284 12.8394 12.0304 12.6319C11.8113 12.4793 11.632 12.2807 11.5049 12.0522Z" fill="#233C5F" fill-opacity="0.7"/>
</svg>
