<svg width="14" height="14" viewBox="0 0 14 14" fill="none" xmlns="http://www.w3.org/2000/svg">
<path fill-rule="evenodd" clip-rule="evenodd" d="M7.00847 2.7145L6.28381 1.98984C4.85188 0.557913 2.53028 0.557913 1.09836 1.98984C-0.333567 3.42176 -0.333567 5.74336 1.09836 7.17529L6.99091 13.0678L6.99211 13.0666L7.00967 13.0842L12.9022 7.19164C14.3341 5.75972 14.3341 3.43812 12.9022 2.00619C11.4703 0.57427 9.1487 0.57427 7.71677 2.00619L7.00847 2.7145ZM6.99211 11.181L10.2829 7.8902L11.2501 6.95618L11.2511 6.95714L11.9594 6.24883C12.8706 5.33761 12.8706 3.86023 11.9594 2.949C11.0482 2.03778 9.57081 2.03778 8.65958 2.949L7.00919 4.5994L7.00436 4.59457L7.00364 4.59529L5.341 2.93264C4.42977 2.02142 2.95239 2.02142 2.04116 2.93264C1.12994 3.84387 1.12994 5.32125 2.04117 6.23248L3.73412 7.92543L3.73531 7.92423L6.99211 11.181Z" fill="#5F728B"/>
</svg>
