<svg width="16" height="16" viewBox="0 0 16 16" fill="none" xmlns="http://www.w3.org/2000/svg">
<path d="M8 8.66406C9.10457 8.66406 10 7.76863 10 6.66406C10 5.55949 9.10457 4.66406 8 4.66406C6.89543 4.66406 6 5.55949 6 6.66406C6 7.76863 6.89543 8.66406 8 8.66406Z" stroke="#545D6A" stroke-width="2" stroke-linecap="round" stroke-linejoin="round"/>
<path d="M7.99739 1.33203C6.58291 1.33203 5.22635 1.89393 4.22616 2.89413C3.22597 3.89432 2.66406 5.25088 2.66406 6.66536C2.66406 7.9267 2.93206 8.75203 3.66406 9.66536L7.99739 14.6654L12.3307 9.66536C13.0627 8.75203 13.3307 7.9267 13.3307 6.66536C13.3307 5.25088 12.7688 3.89432 11.7686 2.89413C10.7684 1.89393 9.41188 1.33203 7.99739 1.33203V1.33203Z" stroke="#545D6A" stroke-width="2" stroke-linecap="round" stroke-linejoin="round"/>
</svg>
