<svg width="49" height="49" viewBox="0 0 49 49" fill="none" xmlns="http://www.w3.org/2000/svg">
<path d="M35.2981 27.2536C35.9563 27.4513 36.6568 27.0786 36.7878 26.4039C37.2066 24.2481 37.0487 22.0119 36.3192 19.9249C35.4523 17.4449 33.8228 15.3029 31.6641 13.8056C29.5054 12.3084 26.9282 11.5328 24.3017 11.5898C21.6752 11.6469 19.1341 12.5338 17.0425 14.1234C14.9508 15.713 13.4159 17.9238 12.6576 20.4391C11.8993 22.9544 11.9565 25.6451 12.821 28.126C13.6855 30.6068 15.3129 32.7503 17.4702 34.2496C19.2857 35.5113 21.398 36.2623 23.5871 36.4361C24.2723 36.4905 24.819 35.9154 24.8047 35.2283C24.7904 34.5412 24.2198 34.0038 23.5363 33.9323C21.8736 33.7584 20.2743 33.1676 18.8906 32.2059C17.1648 31.0065 15.8628 29.2916 15.1712 27.307C14.4796 25.3223 14.4338 23.1697 15.0405 21.1574C15.6471 19.1452 16.8751 17.3766 18.5484 16.1049C20.2217 14.8332 22.2546 14.1237 24.3558 14.0781C26.457 14.0324 28.5187 14.6529 30.2457 15.8507C31.9727 17.0485 33.2763 18.7621 33.9698 20.7461C34.5258 22.3368 34.6667 24.0359 34.3891 25.6844C34.2749 26.3622 34.6399 27.0558 35.2981 27.2536Z" fill="#E81504"/>
<path d="M17.4606 21.1085C17.0308 20.9416 16.5427 21.154 16.4195 21.5984C16.0257 23.0191 16.0139 24.5241 16.3926 25.9591C16.8427 27.6643 17.821 29.1831 19.1875 30.2979C20.5539 31.4127 22.2383 32.0662 23.999 32.1647C25.7598 32.2632 27.5065 31.8017 28.9888 30.8463C30.4711 29.8909 31.6128 28.4907 32.2502 26.8464C32.8877 25.2022 32.9881 23.3983 32.5372 21.6934C32.0862 19.9886 31.107 18.4703 29.74 17.3562C28.5894 16.4186 27.2139 15.8078 25.7574 15.5797C25.3018 15.5084 24.9067 15.8652 24.8812 16.3256C24.8557 16.786 25.21 17.1747 25.6636 17.2574C26.7678 17.4587 27.8081 17.936 28.6851 18.6506C29.7787 19.5419 30.5621 20.7565 30.9228 22.1204C31.2836 23.4843 31.2032 24.9274 30.6933 26.2428C30.1833 27.5583 29.2699 28.6784 28.0841 29.4427C26.8983 30.2071 25.5009 30.5763 24.0923 30.4975C22.6837 30.4186 21.3362 29.8958 20.2431 29.004C19.1499 28.1122 18.3672 26.8971 18.0072 25.533C17.7185 24.4392 17.7135 23.2946 17.9861 22.2059C18.0981 21.7586 17.8905 21.2754 17.4606 21.1085Z" fill="#E81504"/>
<path d="M28.2939 27.001C28.5472 27.1722 28.894 27.1068 29.0391 26.8376C29.5023 25.9785 29.7316 25.009 29.699 24.027C29.6603 22.86 29.2534 21.735 28.5367 20.8131C27.82 19.8912 26.8302 19.2196 25.7087 18.8942C24.5872 18.5689 23.3915 18.6065 22.2927 19.0017C21.1939 19.3969 20.2482 20.1294 19.5909 21.0946C18.9336 22.0597 18.5983 23.208 18.6329 24.3752C18.6676 25.5424 19.0705 26.6688 19.784 27.5932C20.3843 28.371 21.1787 28.9723 22.0829 29.3396C22.3662 29.4546 22.6753 29.2842 22.7615 28.9908C22.8477 28.6975 22.6778 28.393 22.3975 28.2709C21.7164 27.9742 21.118 27.5095 20.6605 26.9167C20.0897 26.1772 19.7674 25.2761 19.7396 24.3423C19.7119 23.4086 19.9801 22.4899 20.506 21.7178C21.0318 20.9457 21.7884 20.3597 22.6674 20.0435C23.5465 19.7273 24.503 19.6972 25.4002 19.9575C26.2974 20.2178 27.0893 20.7551 27.6626 21.4927C28.236 22.2302 28.5615 23.1301 28.5925 24.0638C28.6173 24.8122 28.4519 25.5516 28.1159 26.2142C27.9776 26.4868 28.0406 26.8298 28.2939 27.001Z" fill="#E81504"/>
<path d="M21.8621 22.7437C21.7157 22.6367 21.5086 22.6678 21.4167 22.8241C21.1229 23.3238 20.9656 23.8941 20.9636 24.4776C20.9613 25.171 21.1785 25.8473 21.5841 26.4096C21.9897 26.972 22.5629 27.3915 23.2216 27.6081C23.8803 27.8247 24.5906 27.8272 25.2508 27.6154C25.911 27.4035 26.4872 26.9881 26.8968 26.4287C27.3065 25.8693 27.5285 25.1946 27.5312 24.5012C27.5338 23.8079 27.3169 23.1315 26.9116 22.5689C26.5705 22.0955 26.1106 21.7232 25.581 21.4878C25.4152 21.4142 25.2287 21.5093 25.172 21.6816C25.1152 21.8538 25.2101 22.0376 25.3739 22.1154C25.7725 22.3046 26.1188 22.592 26.3788 22.9529C26.703 23.4029 26.8765 23.944 26.8744 24.4987C26.8723 25.0534 26.6946 25.5932 26.3669 26.0407C26.0392 26.4882 25.5783 26.8206 25.0501 26.99C24.5219 27.1595 23.9537 27.1575 23.4268 26.9842C22.8998 26.8109 22.4413 26.4753 22.1168 26.0254C21.7923 25.5756 21.6185 25.0345 21.6204 24.4798C21.6219 24.0351 21.7362 23.5999 21.9503 23.2141C22.0383 23.0555 22.0085 22.8508 21.8621 22.7437Z" fill="#E81504"/>
<path d="M25.7352 25.7045C25.8269 25.779 25.9628 25.7656 26.0278 25.6669C26.2358 25.3512 26.3573 24.9849 26.3779 24.6049C26.4024 24.1533 26.2833 23.7056 26.0376 23.3259C25.792 22.9463 25.4325 22.6541 25.0106 22.4913C24.5887 22.3286 24.1261 22.3036 23.6891 22.4199C23.2521 22.5363 22.8632 22.788 22.578 23.139C22.2929 23.49 22.1263 23.9223 22.102 24.3738C22.0777 24.8254 22.197 25.2731 22.4427 25.6526C22.6496 25.9721 22.9371 26.2295 23.2745 26.4C23.3801 26.4533 23.5046 26.3974 23.5471 26.287C23.5896 26.1767 23.5338 26.0539 23.4296 25.998C23.1761 25.8618 22.9598 25.6634 22.8022 25.4199C22.6055 25.1162 22.5101 24.7581 22.5296 24.3969C22.549 24.0356 22.6823 23.6898 22.9104 23.409C23.1385 23.1282 23.4497 22.9268 23.7992 22.8337C24.1488 22.7407 24.5189 22.7607 24.8564 22.8909C25.194 23.0211 25.4816 23.2548 25.6781 23.5585C25.8746 23.8623 25.9699 24.2205 25.9503 24.5817C25.9346 24.8714 25.8457 25.1511 25.6934 25.3953C25.6308 25.4956 25.6434 25.6299 25.7352 25.7045Z" fill="#E81504"/>
</svg>
