<svg width="80" height="33" viewBox="0 0 80 33" fill="none" xmlns="http://www.w3.org/2000/svg">
<path d="M10.2204 10.4228L5.41179 26H0.305194L7.55196 6.27796H10.7893L10.2204 10.4228ZM14.2027 26L9.38058 10.4228L8.7575 6.27796H12.0355L19.3229 26H14.2027ZM14.0131 18.6449V22.3157H3.89471V18.6449H14.0131ZM28.2357 21.8822C28.2357 21.6294 28.1499 21.4126 27.9784 21.232C27.8158 21.0424 27.5268 20.8708 27.1115 20.7173C26.6961 20.5548 26.1136 20.3922 25.3641 20.2297C24.6507 20.0762 23.978 19.873 23.3458 19.6201C22.7228 19.3673 22.1764 19.0603 21.7069 18.6991C21.2373 18.3378 20.867 17.9089 20.5961 17.4122C20.3343 16.9156 20.2033 16.3467 20.2033 15.7055C20.2033 15.0824 20.3343 14.4955 20.5961 13.9446C20.867 13.3848 21.2599 12.8926 21.7746 12.4682C22.2983 12.0347 22.935 11.6961 23.6845 11.4523C24.434 11.1994 25.2874 11.073 26.2446 11.073C27.563 11.073 28.7008 11.2762 29.658 11.6826C30.6152 12.0799 31.3512 12.6398 31.8659 13.3622C32.3896 14.0756 32.6515 14.9018 32.6515 15.841H28.0867C28.0867 15.4707 28.0235 15.1547 27.8971 14.8928C27.7797 14.6309 27.5855 14.4323 27.3146 14.2968C27.0437 14.1523 26.6825 14.0801 26.231 14.0801C25.915 14.0801 25.626 14.1388 25.3641 14.2562C25.1113 14.3736 24.9081 14.5361 24.7546 14.7438C24.6011 14.9515 24.5243 15.1953 24.5243 15.4753C24.5243 15.6739 24.5694 15.8545 24.6597 16.0171C24.7591 16.1706 24.9081 16.3151 25.1067 16.4505C25.3054 16.5769 25.5583 16.6943 25.8653 16.8027C26.1723 16.902 26.5426 16.9923 26.976 17.0736C27.9603 17.2542 28.8814 17.5116 29.7393 17.8457C30.5971 18.1798 31.2925 18.6539 31.8252 19.268C32.3671 19.882 32.638 20.7083 32.638 21.7468C32.638 22.3969 32.489 22.9974 32.191 23.5483C31.893 24.0901 31.464 24.5687 30.9042 24.9841C30.3443 25.3905 29.6715 25.7065 28.8859 25.9323C28.1003 26.158 27.2153 26.2709 26.231 26.2709C24.8313 26.2709 23.6484 26.0226 22.6821 25.5259C21.7159 25.0202 20.9844 24.3881 20.4878 23.6296C20.0001 22.862 19.7563 22.0854 19.7563 21.2998H24.0096C24.0276 21.7513 24.136 22.1215 24.3347 22.4105C24.5424 22.6994 24.8178 22.9117 25.1609 23.0471C25.5041 23.1826 25.9014 23.2503 26.3529 23.2503C26.7683 23.2503 27.1115 23.1916 27.3824 23.0742C27.6623 22.9568 27.8745 22.7988 28.019 22.6001C28.1635 22.3924 28.2357 22.1531 28.2357 21.8822ZM39.2481 5.19433V26H34.6833V5.19433H39.2481ZM38.7063 18.1708L37.6362 18.1979C37.6362 17.1684 37.7626 16.2203 38.0155 15.3533C38.2683 14.4864 38.6295 13.7324 39.0991 13.0913C39.5687 12.4501 40.1331 11.9535 40.7923 11.6013C41.4515 11.2491 42.1829 11.073 42.9866 11.073C43.709 11.073 44.3682 11.1769 44.9642 11.3846C45.5693 11.5923 46.0885 11.9264 46.522 12.3869C46.9644 12.8475 47.3031 13.448 47.5379 14.1884C47.7817 14.9289 47.9036 15.832 47.9036 16.8975V26H43.3117V16.8704C43.3117 16.2744 43.2259 15.8139 43.0543 15.4888C42.8918 15.1547 42.657 14.9244 42.35 14.798C42.043 14.6625 41.6682 14.5948 41.2257 14.5948C40.6929 14.5948 40.2595 14.6851 39.9254 14.8657C39.5912 15.0463 39.3339 15.2992 39.1533 15.6243C38.9817 15.9403 38.8643 16.3151 38.8011 16.7485C38.7379 17.182 38.7063 17.6561 38.7063 18.1708ZM54.9336 24.2797L58.7263 11.3439H63.6297L57.7375 28.1808C57.6111 28.551 57.444 28.9484 57.2363 29.3728C57.0286 29.8062 56.7442 30.2171 56.383 30.6054C56.0218 30.9937 55.5567 31.3098 54.9878 31.5536C54.4279 31.7974 53.7326 31.9193 52.9018 31.9193C52.4593 31.9193 52.1343 31.8967 51.9266 31.8516C51.7279 31.8155 51.4209 31.7477 51.0055 31.6484V28.384C51.1229 28.384 51.2222 28.384 51.3035 28.384C51.3938 28.384 51.4931 28.384 51.6015 28.384C52.0891 28.384 52.4774 28.3343 52.7664 28.235C53.0644 28.1357 53.2901 27.9912 53.4436 27.8015C53.6062 27.6119 53.7326 27.3816 53.8229 27.1107L54.9336 24.2797ZM53.9719 11.3439L56.8571 21.5978L57.3582 26.4335H54.297L49.082 11.3439H53.9719ZM64.0361 18.821V18.5365C64.0361 17.4619 64.1896 16.4731 64.4966 15.5701C64.8037 14.658 65.2552 13.8679 65.8512 13.1996C66.4472 12.5314 67.1831 12.0122 68.0591 11.6419C68.935 11.2626 69.9464 11.073 71.0932 11.073C72.2491 11.073 73.265 11.2626 74.1409 11.6419C75.0259 12.0122 75.7664 12.5314 76.3624 13.1996C76.9584 13.8679 77.4099 14.658 77.7169 15.5701C78.0239 16.4731 78.1775 17.4619 78.1775 18.5365V18.821C78.1775 19.8865 78.0239 20.8753 77.7169 21.7874C77.4099 22.6904 76.9584 23.4806 76.3624 24.1578C75.7664 24.8261 75.0304 25.3453 74.1545 25.7155C73.2786 26.0858 72.2672 26.2709 71.1203 26.2709C69.9735 26.2709 68.9576 26.0858 68.0726 25.7155C67.1877 25.3453 66.4472 24.8261 65.8512 24.1578C65.2552 23.4806 64.8037 22.6904 64.4966 21.7874C64.1896 20.8753 64.0361 19.8865 64.0361 18.821ZM68.6009 18.5365V18.821C68.6009 19.3718 68.6415 19.8865 68.7228 20.3651C68.8041 20.8437 68.9395 21.2636 69.1292 21.6248C69.3188 21.977 69.5762 22.2525 69.9012 22.4511C70.2263 22.6498 70.6327 22.7491 71.1203 22.7491C71.5989 22.7491 71.9963 22.6498 72.3123 22.4511C72.6374 22.2525 72.8948 21.977 73.0844 21.6248C73.274 21.2636 73.4095 20.8437 73.4908 20.3651C73.572 19.8865 73.6127 19.3718 73.6127 18.821V18.5365C73.6127 18.0037 73.572 17.5025 73.4908 17.033C73.4095 16.5544 73.274 16.1345 73.0844 15.7733C72.8948 15.403 72.6374 15.114 72.3123 14.9064C71.9872 14.6987 71.5809 14.5948 71.0932 14.5948C70.6146 14.5948 70.2128 14.6987 69.8877 14.9064C69.5716 15.114 69.3188 15.403 69.1292 15.7733C68.9395 16.1345 68.8041 16.5544 68.7228 17.033C68.6415 17.5025 68.6009 18.0037 68.6009 18.5365Z" fill="#134E9B"/>
</svg>
