<svg width="16" height="16" viewBox="0 0 16 16" fill="none" xmlns="http://www.w3.org/2000/svg">
<path d="M12.6663 2.51671H3.33301C2.88198 2.51671 2.51634 2.88234 2.51634 3.33337V12.6667C2.51634 13.1177 2.88198 13.4834 3.33301 13.4834H12.6663C13.1174 13.4834 13.483 13.1177 13.483 12.6667V3.33337C13.483 2.88234 13.1174 2.51671 12.6663 2.51671ZM1.48301 3.33337C1.48301 2.31165 2.31128 1.48337 3.33301 1.48337H12.6663C13.6881 1.48337 14.5163 2.31165 14.5163 3.33337V12.6667C14.5163 13.6884 13.6881 14.5167 12.6663 14.5167H3.33301C2.31128 14.5167 1.48301 13.6884 1.48301 12.6667V3.33337ZM7.99967 7.85004C6.30648 7.85004 4.88417 6.2314 4.8187 4.15004H5.85248C5.91576 5.83029 7.03731 6.81671 7.99967 6.81671C8.96204 6.81671 10.0836 5.83029 10.1469 4.15004H11.1807C11.1152 6.2314 9.69287 7.85004 7.99967 7.85004Z" fill="white" stroke="#134E9B" stroke-width="0.3"/>
</svg>
